<svg width="647" height="123" viewBox="0 0 647 123" fill="none" xmlns="http://www.w3.org/2000/svg">
<g filter="url(#filter0_d)">
<path d="M45.968 80.576C38 80.576 30.896 78.896 24.656 75.536C18.512 72.08 13.664 67.376 10.112 61.424C6.656 55.376 4.928 48.464 4.928 40.688C4.928 32.816 6.56 25.904 9.824 19.952C13.184 13.904 17.792 9.2 23.648 5.83999C29.504 2.384 36.224 0.656 43.808 0.656C51.296 0.656 57.728 2.336 63.104 5.696C68.48 8.96 72.56 13.52 75.344 19.376C78.224 25.136 79.664 31.808 79.664 39.392C79.664 41.216 79.04 42.752 77.792 44C76.544 45.152 74.96 45.728 73.04 45.728H18.32C19.376 52.352 22.4 57.776 27.392 62C32.48 66.128 38.672 68.192 45.968 68.192C48.944 68.192 51.968 67.664 55.04 66.608C58.208 65.456 60.752 64.16 62.672 62.72C64.112 61.664 65.648 61.136 67.28 61.136C69.008 61.04 70.496 61.52 71.744 62.576C73.376 64.016 74.24 65.6 74.336 67.328C74.432 69.056 73.664 70.544 72.032 71.792C68.768 74.384 64.688 76.496 59.792 78.128C54.992 79.76 50.384 80.576 45.968 80.576ZM43.808 13.04C36.704 13.04 30.992 15.008 26.672 18.944C22.352 22.88 19.616 27.968 18.464 34.208H66.416C65.552 28.064 63.2 23.024 59.36 19.088C55.52 15.056 50.336 13.04 43.808 13.04ZM128.417 80.576C121.409 80.576 115.121 78.848 109.553 75.392C103.985 71.84 99.569 67.088 96.305 61.136C93.137 55.088 91.553 48.272 91.553 40.688C91.553 33.104 93.281 26.288 96.737 20.24C100.289 14.192 105.041 9.44 110.993 5.984C117.041 2.432 123.809 0.656 131.297 0.656C138.785 0.656 145.505 2.432 151.457 5.984C157.409 9.44 162.113 14.192 165.569 20.24C169.121 26.288 170.897 33.104 170.897 40.688V72.8C170.897 74.912 170.177 76.688 168.737 78.128C167.393 79.472 165.665 80.144 163.553 80.144C161.441 80.144 159.665 79.472 158.225 78.128C156.881 76.688 156.209 74.912 156.209 72.8V67.472C152.849 71.504 148.769 74.72 143.969 77.12C139.265 79.424 134.081 80.576 128.417 80.576ZM131.297 67.616C136.193 67.616 140.561 66.464 144.401 64.16C148.241 61.76 151.265 58.544 153.473 54.512C155.681 50.384 156.785 45.776 156.785 40.688C156.785 35.504 155.681 30.896 153.473 26.864C151.265 22.736 148.241 19.52 144.401 17.216C140.561 14.816 136.193 13.616 131.297 13.616C126.497 13.616 122.129 14.816 118.193 17.216C114.353 19.52 111.281 22.736 108.977 26.864C106.769 30.896 105.665 35.504 105.665 40.688C105.665 45.776 106.769 50.384 108.977 54.512C111.281 58.544 114.353 61.76 118.193 64.16C122.129 66.464 126.497 67.616 131.297 67.616ZM221.413 80.576C214.693 80.576 208.453 79.568 202.693 77.552C197.029 75.44 192.613 72.8 189.445 69.632C188.005 68.096 187.381 66.368 187.573 64.448C187.861 62.432 188.821 60.8 190.453 59.552C192.373 58.016 194.245 57.392 196.069 57.68C197.989 57.872 199.621 58.688 200.965 60.128C202.597 61.952 205.189 63.68 208.741 65.312C212.389 66.848 216.421 67.616 220.837 67.616C226.405 67.616 230.629 66.704 233.509 64.88C236.485 63.056 238.021 60.704 238.117 57.824C238.213 54.944 236.821 52.448 233.941 50.336C231.157 48.224 226.021 46.496 218.533 45.152C208.837 43.232 201.781 40.352 197.365 36.512C193.045 32.672 190.885 27.968 190.885 22.4C190.885 17.504 192.325 13.472 195.205 10.304C198.085 7.04 201.781 4.64 206.293 3.10399C210.805 1.472 215.509 0.656 220.405 0.656C226.741 0.656 232.357 1.664 237.253 3.68C242.149 5.696 246.037 8.48 248.917 12.032C250.261 13.568 250.885 15.2 250.789 16.928C250.693 18.56 249.877 19.952 248.341 21.104C246.805 22.16 244.981 22.496 242.869 22.112C240.757 21.728 238.981 20.864 237.541 19.52C235.141 17.216 232.549 15.632 229.765 14.768C226.981 13.904 223.765 13.472 220.117 13.472C215.893 13.472 212.293 14.192 209.317 15.632C206.437 17.072 204.997 19.184 204.997 21.968C204.997 23.696 205.429 25.28 206.293 26.72C207.253 28.064 209.077 29.312 211.765 30.464C214.453 31.52 218.389 32.576 223.573 33.632C234.421 35.744 241.909 38.768 246.037 42.704C250.261 46.544 252.373 51.296 252.373 56.96C252.373 61.376 251.173 65.36 248.773 68.912C246.469 72.464 243.013 75.296 238.405 77.408C233.893 79.52 228.229 80.576 221.413 80.576ZM285.056 114.56C284.096 114.56 282.944 114.272 281.6 113.696C277.376 111.776 276.224 108.752 278.144 104.624L292.544 72.224L260.144 10.736C259.184 8.912 259.04 7.184 259.712 5.552C260.48 3.824 261.776 2.576 263.6 1.80799C265.424 1.04 267.152 0.991999 268.784 1.664C270.416 2.23999 271.664 3.43999 272.528 5.26399L298.88 57.68L322.064 5.408C323.984 1.376 327.008 0.223997 331.136 1.95199C335.456 3.776 336.656 6.8 334.736 11.024L290.672 110.096C289.52 113.072 287.648 114.56 285.056 114.56Z" fill="#4582B6"/>
<path d="M384.281 80.576C376.601 80.576 369.737 78.848 363.689 75.392C357.737 71.84 353.033 67.088 349.577 61.136C346.217 55.088 344.537 48.272 344.537 40.688C344.537 32.912 346.217 26 349.577 19.952C352.937 13.904 357.545 9.2 363.401 5.83999C369.257 2.384 375.977 0.656 383.561 0.656C394.889 0.656 404.297 4.976 411.785 13.616C413.129 15.152 413.609 16.736 413.225 18.368C412.841 20 411.785 21.44 410.057 22.688C408.713 23.648 407.225 23.984 405.593 23.696C403.961 23.312 402.473 22.448 401.129 21.104C396.425 16.112 390.569 13.616 383.561 13.616C376.169 13.616 370.169 16.112 365.561 21.104C360.953 26 358.649 32.528 358.649 40.688C358.649 45.872 359.705 50.48 361.817 54.512C364.025 58.544 367.049 61.76 370.889 64.16C374.729 66.464 379.193 67.616 384.281 67.616C390.809 67.616 396.089 65.936 400.121 62.576C401.657 61.328 403.241 60.656 404.873 60.56C406.505 60.368 407.945 60.8 409.193 61.856C410.825 63.2 411.737 64.736 411.929 66.464C412.121 68.096 411.545 69.584 410.201 70.928C403.289 77.36 394.649 80.576 384.281 80.576ZM467.886 80.576C460.878 80.576 454.59 78.848 449.022 75.392C443.454 71.84 439.038 67.088 435.774 61.136C432.606 55.088 431.022 48.272 431.022 40.688C431.022 33.104 432.75 26.288 436.206 20.24C439.758 14.192 444.51 9.44 450.462 5.984C456.51 2.432 463.278 0.656 470.766 0.656C478.254 0.656 484.974 2.432 490.926 5.984C496.878 9.44 501.582 14.192 505.038 20.24C508.59 26.288 510.366 33.104 510.366 40.688V72.8C510.366 74.912 509.646 76.688 508.206 78.128C506.862 79.472 505.134 80.144 503.022 80.144C500.91 80.144 499.134 79.472 497.694 78.128C496.35 76.688 495.678 74.912 495.678 72.8V67.472C492.318 71.504 488.238 74.72 483.438 77.12C478.734 79.424 473.55 80.576 467.886 80.576ZM470.766 67.616C475.662 67.616 480.03 66.464 483.87 64.16C487.71 61.76 490.734 58.544 492.942 54.512C495.15 50.384 496.254 45.776 496.254 40.688C496.254 35.504 495.15 30.896 492.942 26.864C490.734 22.736 487.71 19.52 483.87 17.216C480.03 14.816 475.662 13.616 470.766 13.616C465.966 13.616 461.598 14.816 457.662 17.216C453.822 19.52 450.75 22.736 448.446 26.864C446.238 30.896 445.134 35.504 445.134 40.688C445.134 45.776 446.238 50.384 448.446 54.512C450.75 58.544 453.822 61.76 457.662 64.16C461.598 66.464 465.966 67.616 470.766 67.616ZM539.57 80.144C537.458 80.144 535.682 79.472 534.242 78.128C532.898 76.688 532.226 74.912 532.226 72.8V8.72C532.226 6.512 532.898 4.736 534.242 3.392C535.682 2.048 537.458 1.376 539.57 1.376C541.778 1.376 543.554 2.048 544.898 3.392C546.242 4.736 546.914 6.416 546.914 8.432C549.41 5.936 552.386 4.016 555.842 2.672C559.298 1.232 563.042 0.511993 567.074 0.511993C577.154 0.511993 584.738 4.30399 589.826 11.888C592.61 8.33599 596.162 5.55199 600.482 3.536C604.802 1.51999 609.65 0.511993 615.026 0.511993C623.282 0.511993 630.002 3.19999 635.186 8.576C640.37 13.952 642.962 21.632 642.962 31.616V72.8C642.962 74.912 642.29 76.688 640.946 78.128C639.602 79.472 637.826 80.144 635.618 80.144C633.506 80.144 631.73 79.472 630.29 78.128C628.946 76.688 628.274 74.912 628.274 72.8V31.616C628.274 25.568 626.786 21.104 623.81 18.224C620.834 15.248 616.946 13.76 612.146 13.76C607.154 13.76 603.026 15.488 599.762 18.944C596.594 22.4 595.01 26.816 595.01 32.192V72.8C595.01 74.912 594.338 76.688 592.994 78.128C591.65 79.472 589.874 80.144 587.666 80.144C585.554 80.144 583.778 79.472 582.338 78.128C580.994 76.688 580.322 74.912 580.322 72.8V31.616C580.322 25.568 578.834 21.104 575.858 18.224C572.882 15.248 568.994 13.76 564.194 13.76C559.202 13.76 555.074 15.488 551.81 18.944C548.546 22.4 546.914 26.816 546.914 32.192V72.8C546.914 74.912 546.242 76.688 544.898 78.128C543.554 79.472 541.778 80.144 539.57 80.144Z" fill="black"/>
</g>
<defs>
<filter id="filter0_d" x="0.928009" y="0.511993" width="646.034" height="122.048" filterUnits="userSpaceOnUse" color-interpolation-filters="sRGB">
<feFlood flood-opacity="0" result="BackgroundImageFix"/>
<feColorMatrix in="SourceAlpha" type="matrix" values="0 0 0 0 0 0 0 0 0 0 0 0 0 0 0 0 0 0 127 0"/>
<feOffset dy="4"/>
<feGaussianBlur stdDeviation="2"/>
<feColorMatrix type="matrix" values="0 0 0 0 0 0 0 0 0 0 0 0 0 0 0 0 0 0 0.25 0"/>
<feBlend mode="normal" in2="BackgroundImageFix" result="effect1_dropShadow"/>
<feBlend mode="normal" in="SourceGraphic" in2="effect1_dropShadow" result="shape"/>
</filter>
</defs>
</svg>
