<svg width="134" height="25" viewBox="0 0 134 25" fill="none" xmlns="http://www.w3.org/2000/svg">
<path d="M9.32602 17.12C7.66602 17.12 6.18602 16.77 4.88602 16.07C3.60602 15.35 2.59602 14.37 1.85602 13.13C1.13602 11.87 0.776016 10.43 0.776016 8.81C0.776016 7.17 1.11602 5.73 1.79602 4.49C2.49602 3.23 3.45602 2.25 4.67602 1.55C5.89602 0.83 7.29602 0.47 8.87602 0.47C10.436 0.47 11.776 0.82 12.896 1.52C14.016 2.2 14.866 3.15 15.446 4.37C16.046 5.57 16.346 6.96 16.346 8.54C16.346 8.92 16.216 9.24 15.956 9.5C15.696 9.74 15.366 9.86 14.966 9.86H3.56602C3.78602 11.24 4.41602 12.37 5.45602 13.25C6.51602 14.11 7.80602 14.54 9.32602 14.54C9.94602 14.54 10.576 14.43 11.216 14.21C11.876 13.97 12.406 13.7 12.806 13.4C13.106 13.18 13.426 13.07 13.766 13.07C14.126 13.05 14.436 13.15 14.696 13.37C15.036 13.67 15.216 14 15.236 14.36C15.256 14.72 15.096 15.03 14.756 15.29C14.076 15.83 13.226 16.27 12.206 16.61C11.206 16.95 10.246 17.12 9.32602 17.12ZM8.87602 3.05C7.39602 3.05 6.20602 3.46 5.30602 4.28C4.40602 5.1 3.83602 6.16 3.59602 7.46H13.586C13.406 6.18 12.916 5.13 12.116 4.31C11.316 3.47 10.236 3.05 8.87602 3.05ZM26.5029 17.12C25.0429 17.12 23.7329 16.76 22.5729 16.04C21.4129 15.3 20.4929 14.31 19.8129 13.07C19.1529 11.81 18.8229 10.39 18.8229 8.81C18.8229 7.23 19.1829 5.81 19.9029 4.55C20.6429 3.29 21.6329 2.3 22.8729 1.58C24.1329 0.84 25.5429 0.47 27.1029 0.47C28.6629 0.47 30.0629 0.84 31.3029 1.58C32.5429 2.3 33.5229 3.29 34.2429 4.55C34.9829 5.81 35.3529 7.23 35.3529 8.81V15.5C35.3529 15.94 35.2029 16.31 34.9029 16.61C34.6229 16.89 34.2629 17.03 33.8229 17.03C33.3829 17.03 33.0129 16.89 32.7129 16.61C32.4329 16.31 32.2929 15.94 32.2929 15.5V14.39C31.5929 15.23 30.7429 15.9 29.7429 16.4C28.7629 16.88 27.6829 17.12 26.5029 17.12ZM27.1029 14.42C28.1229 14.42 29.0329 14.18 29.8329 13.7C30.6329 13.2 31.2629 12.53 31.7229 11.69C32.1829 10.83 32.4129 9.87 32.4129 8.81C32.4129 7.73 32.1829 6.77 31.7229 5.93C31.2629 5.07 30.6329 4.4 29.8329 3.92C29.0329 3.42 28.1229 3.17 27.1029 3.17C26.1029 3.17 25.1929 3.42 24.3729 3.92C23.5729 4.4 22.9329 5.07 22.4529 5.93C21.9929 6.77 21.7629 7.73 21.7629 8.81C21.7629 9.87 21.9929 10.83 22.4529 11.69C22.9329 12.53 23.5729 13.2 24.3729 13.7C25.1929 14.18 26.1029 14.42 27.1029 14.42ZM45.877 17.12C44.477 17.12 43.177 16.91 41.977 16.49C40.797 16.05 39.877 15.5 39.217 14.84C38.917 14.52 38.787 14.16 38.827 13.76C38.887 13.34 39.087 13 39.427 12.74C39.827 12.42 40.217 12.29 40.597 12.35C40.997 12.39 41.337 12.56 41.617 12.86C41.957 13.24 42.497 13.6 43.237 13.94C43.997 14.26 44.837 14.42 45.757 14.42C46.917 14.42 47.797 14.23 48.397 13.85C49.017 13.47 49.337 12.98 49.357 12.38C49.377 11.78 49.087 11.26 48.487 10.82C47.907 10.38 46.837 10.02 45.277 9.74C43.257 9.34 41.787 8.74 40.867 7.94C39.967 7.14 39.517 6.16 39.517 5C39.517 3.98 39.817 3.14 40.417 2.48C41.017 1.8 41.787 1.3 42.727 0.979999C43.667 0.64 44.647 0.47 45.667 0.47C46.987 0.47 48.157 0.68 49.177 1.1C50.197 1.52 51.007 2.1 51.607 2.84C51.887 3.16 52.017 3.5 51.997 3.86C51.977 4.2 51.807 4.49 51.487 4.73C51.167 4.95 50.787 5.02 50.347 4.94C49.907 4.86 49.537 4.68 49.237 4.4C48.737 3.92 48.197 3.59 47.617 3.41C47.037 3.23 46.367 3.14 45.607 3.14C44.727 3.14 43.977 3.29 43.357 3.59C42.757 3.89 42.457 4.33 42.457 4.91C42.457 5.27 42.547 5.6 42.727 5.9C42.927 6.18 43.307 6.44 43.867 6.68C44.427 6.9 45.247 7.12 46.327 7.34C48.587 7.78 50.147 8.41 51.007 9.23C51.887 10.03 52.327 11.02 52.327 12.2C52.327 13.12 52.077 13.95 51.577 14.69C51.097 15.43 50.377 16.02 49.417 16.46C48.477 16.9 47.297 17.12 45.877 17.12ZM59.1361 24.2C58.9361 24.2 58.6961 24.14 58.4161 24.02C57.5361 23.62 57.2961 22.99 57.6961 22.13L60.6961 15.38L53.9461 2.57C53.7461 2.19 53.7161 1.83 53.8561 1.49C54.0161 1.13 54.2861 0.869999 54.6661 0.709999C55.0461 0.55 55.4061 0.54 55.7461 0.679999C56.0861 0.799999 56.3461 1.05 56.5261 1.43L62.0161 12.35L66.8461 1.46C67.2461 0.62 67.8761 0.379999 68.7361 0.739998C69.6361 1.12 69.8861 1.75 69.4861 2.63L60.3061 23.27C60.0661 23.89 59.6761 24.2 59.1361 24.2Z" fill="#4582B6"/>
<path d="M79.808 17.12C78.208 17.12 76.778 16.76 75.518 16.04C74.278 15.3 73.298 14.31 72.578 13.07C71.878 11.81 71.528 10.39 71.528 8.81C71.528 7.19 71.878 5.75 72.578 4.49C73.278 3.23 74.238 2.25 75.458 1.55C76.678 0.83 78.078 0.47 79.658 0.47C82.018 0.47 83.978 1.37 85.538 3.17C85.818 3.49 85.918 3.82 85.838 4.16C85.758 4.5 85.538 4.8 85.178 5.06C84.898 5.26 84.588 5.33 84.248 5.27C83.908 5.19 83.598 5.01 83.318 4.73C82.338 3.69 81.118 3.17 79.658 3.17C78.118 3.17 76.868 3.69 75.908 4.73C74.948 5.75 74.468 7.11 74.468 8.81C74.468 9.89 74.688 10.85 75.128 11.69C75.588 12.53 76.218 13.2 77.018 13.7C77.818 14.18 78.748 14.42 79.808 14.42C81.168 14.42 82.268 14.07 83.108 13.37C83.428 13.11 83.758 12.97 84.098 12.95C84.438 12.91 84.738 13 84.998 13.22C85.338 13.5 85.528 13.82 85.568 14.18C85.608 14.52 85.488 14.83 85.208 15.11C83.768 16.45 81.968 17.12 79.808 17.12ZM97.2255 17.12C95.7655 17.12 94.4555 16.76 93.2955 16.04C92.1355 15.3 91.2155 14.31 90.5355 13.07C89.8755 11.81 89.5455 10.39 89.5455 8.81C89.5455 7.23 89.9055 5.81 90.6255 4.55C91.3655 3.29 92.3555 2.3 93.5955 1.58C94.8555 0.84 96.2655 0.47 97.8255 0.47C99.3855 0.47 100.786 0.84 102.026 1.58C103.266 2.3 104.246 3.29 104.966 4.55C105.706 5.81 106.076 7.23 106.076 8.81V15.5C106.076 15.94 105.926 16.31 105.626 16.61C105.346 16.89 104.986 17.03 104.546 17.03C104.106 17.03 103.736 16.89 103.436 16.61C103.156 16.31 103.016 15.94 103.016 15.5V14.39C102.316 15.23 101.466 15.9 100.466 16.4C99.4855 16.88 98.4055 17.12 97.2255 17.12ZM97.8255 14.42C98.8455 14.42 99.7555 14.18 100.556 13.7C101.356 13.2 101.986 12.53 102.446 11.69C102.906 10.83 103.136 9.87 103.136 8.81C103.136 7.73 102.906 6.77 102.446 5.93C101.986 5.07 101.356 4.4 100.556 3.92C99.7555 3.42 98.8455 3.17 97.8255 3.17C96.8255 3.17 95.9155 3.42 95.0955 3.92C94.2955 4.4 93.6555 5.07 93.1755 5.93C92.7155 6.77 92.4855 7.73 92.4855 8.81C92.4855 9.87 92.7155 10.83 93.1755 11.69C93.6555 12.53 94.2955 13.2 95.0955 13.7C95.9155 14.18 96.8255 14.42 97.8255 14.42ZM112.16 17.03C111.72 17.03 111.35 16.89 111.05 16.61C110.77 16.31 110.63 15.94 110.63 15.5V2.15C110.63 1.69 110.77 1.32 111.05 1.04C111.35 0.76 111.72 0.62 112.16 0.62C112.62 0.62 112.99 0.76 113.27 1.04C113.55 1.32 113.69 1.67 113.69 2.09C114.21 1.57 114.83 1.17 115.55 0.89C116.27 0.589999 117.05 0.439999 117.89 0.439999C119.99 0.439999 121.57 1.23 122.63 2.81C123.21 2.07 123.95 1.49 124.85 1.07C125.75 0.649999 126.76 0.439999 127.88 0.439999C129.6 0.439999 131 0.999999 132.08 2.12C133.16 3.24 133.7 4.84 133.7 6.92V15.5C133.7 15.94 133.56 16.31 133.28 16.61C133 16.89 132.63 17.03 132.17 17.03C131.73 17.03 131.36 16.89 131.06 16.61C130.78 16.31 130.64 15.94 130.64 15.5V6.92C130.64 5.66 130.33 4.73 129.71 4.13C129.09 3.51 128.28 3.2 127.28 3.2C126.24 3.2 125.38 3.56 124.7 4.28C124.04 5 123.71 5.92 123.71 7.04V15.5C123.71 15.94 123.57 16.31 123.29 16.61C123.01 16.89 122.64 17.03 122.18 17.03C121.74 17.03 121.37 16.89 121.07 16.61C120.79 16.31 120.65 15.94 120.65 15.5V6.92C120.65 5.66 120.34 4.73 119.72 4.13C119.1 3.51 118.29 3.2 117.29 3.2C116.25 3.2 115.39 3.56 114.71 4.28C114.03 5 113.69 5.92 113.69 7.04V15.5C113.69 15.94 113.55 16.31 113.27 16.61C112.99 16.89 112.62 17.03 112.16 17.03Z" fill="black"/>
</svg>
